<?xml version="1.0" standalone="no"?>
<!DOCTYPE svg PUBLIC "-//W3C//DTD SVG 20010904//EN"
 "http://www.w3.org/TR/2001/REC-SVG-20010904/DTD/svg10.dtd">
<svg version="1.0" xmlns="http://www.w3.org/2000/svg"
 width="80.000000pt" height="80.000000pt" viewBox="0 0 80.000000 80.000000"
 preserveAspectRatio="xMidYMid meet">

<g transform="translate(0.000000,80.000000) scale(0.100000,-0.100000)"
fill="#000000" stroke="none">
<path d="M0 400 l0 -400 400 0 400 0 0 400 0 400 -400 0 -400 0 0 -400z m542
264 c-3 -58 -2 -59 30 -74 21 -9 34 -23 36 -37 3 -19 10 -23 41 -23 20 0 42 5
47 10 17 17 45 0 42 -24 -3 -19 -8 -21 -65 -18 l-63 4 0 -47 0 -47 63 4 c57 3
62 1 65 -18 3 -24 -25 -41 -42 -24 -5 5 -27 10 -48 10 l-38 0 0 -50 c0 -49 1
-50 30 -50 17 0 39 5 49 12 24 15 51 4 51 -22 0 -26 -27 -37 -51 -22 -10 7
-31 12 -47 12 -23 0 -30 -6 -37 -33 -8 -25 -16 -33 -37 -35 -25 -3 -28 -7 -28
-41 0 -20 5 -42 11 -48 18 -18 2 -45 -23 -41 -22 3 -23 7 -19 66 l3 63 -48 -3
-49 -3 2 -35 c1 -19 3 -46 5 -60 2 -20 -2 -26 -20 -28 -22 -3 -23 -2 -16 62
l7 66 -32 0 c-17 0 -31 5 -31 10 0 6 33 10 79 10 43 0 99 3 125 6 l46 7 0 172
c0 195 4 185 -81 185 -27 0 -49 5 -49 10 0 6 16 10 35 10 33 0 35 2 35 35 0
19 -6 44 -12 55 -11 17 -10 22 2 30 27 18 35 4 32 -56z m-14 -146 c13 -13 17
-212 6 -242 -5 -13 -23 -16 -95 -16 -113 0 -118 18 -6 22 81 3 82 3 85 31 3
23 0 27 -22 27 -16 0 -26 6 -26 15 0 9 9 15 25 15 20 0 25 5 25 25 0 23 -3 25
-50 25 -64 0 -66 18 -2 22 45 3 47 4 47 33 0 29 -2 30 -48 33 -26 2 -45 7 -42
13 9 13 89 11 103 -3z m-224 -443 c-4 -8 -8 -15 -10 -15 -2 0 -4 7 -4 15 0 8
4 15 10 15 5 0 7 -7 4 -15z"/>
</g>
</svg>
